<svg xmlns="http://www.w3.org/2000/svg" viewBox="0 0 80 30">
  <path d="M40 0C17.7988 0 0 6.65555 0 15C0 23.2944 17.9432 30 40 30C62.0568 30 80 23.2722 80 15C80 6.72778 62.0568 0 40 0Z" fill="#00095B"/>
  <path d="M63.4981 10.6943C63.5509 10.6027 63.4953 10.536 63.3787 10.536C62.7759 10.536 61.9843 10.536 61.3566 10.536C61.2066 10.536 61.1288 10.5555 61.0594 10.6943C60.8288 11.1388 58.004 15.3721 57.4763 16.1943C57.3874 16.3193 57.2791 16.3027 57.268 16.161C57.2152 15.6721 56.793 15.111 56.1292 14.8416C55.6236 14.636 55.1265 14.5999 54.6126 14.6666C53.6849 14.7916 52.8544 15.2805 52.1267 15.8332C51.0295 16.6666 50.0824 17.7471 48.863 18.5471C48.1964 18.9805 47.2826 19.361 46.6715 18.7943C46.1187 18.2805 46.1799 17.1416 47.027 16.261C47.1159 16.1693 47.2242 16.2471 47.2076 16.3277C47.127 16.7249 47.227 17.1221 47.527 17.3999C47.8964 17.7305 48.4241 17.7693 48.8769 17.5471C49.4102 17.2832 49.7241 16.7721 49.8157 16.1916C49.9574 15.2916 49.2658 14.4999 48.3991 14.436C47.6964 14.386 47.0215 14.6305 46.3632 15.1749C46.0326 15.4471 45.8465 15.6499 45.5605 16.0555C45.491 16.1555 45.3855 16.1666 45.3882 16.0193C45.4216 14.8693 44.9438 14.2221 43.9939 14.1999C43.2551 14.1832 42.4662 14.5832 41.8524 15.0721C41.1774 15.6138 40.5886 16.3305 39.9581 17.0055C39.8803 17.0888 39.8109 17.086 39.7886 16.9249C39.7692 16.161 39.5775 15.4249 39.2248 14.8999C39.0998 14.7166 38.8359 14.6277 38.6165 14.7499C38.5137 14.8055 38.161 14.9693 37.9027 15.1777C37.7749 15.2832 37.7249 15.436 37.7804 15.6305C38.1221 16.7693 38.0471 18.0638 37.5832 19.1582C37.1583 20.161 36.3333 21.0638 35.3639 21.3693C34.7251 21.5721 34.0613 21.4721 33.6502 20.9055C33.0863 20.1249 33.3141 18.7638 34.1557 17.636C34.8973 16.6416 35.9722 16.011 37.0416 15.6055C37.1666 15.5582 37.1944 15.4749 37.1583 15.3693C37.0999 15.1943 37.0083 14.9527 36.9694 14.8443C36.8722 14.5832 36.5972 14.5416 36.2611 14.5777C35.4834 14.6693 34.7806 14.936 34.089 15.3055C32.2725 16.2777 31.3642 18.1582 30.9642 19.1666C30.7726 19.6499 30.6087 19.9527 30.3948 20.2193C30.1087 20.5777 29.7504 20.9055 29.0922 21.4832C29.0338 21.536 28.9894 21.6471 29.0394 21.7499C29.106 21.8888 29.4477 22.3721 29.5449 22.4138C29.6504 22.4666 29.7754 22.3916 29.8254 22.3582C30.2865 22.0471 30.8337 21.5527 31.1031 21.2166C31.1976 21.1027 31.2948 21.1499 31.3448 21.3249C31.5948 22.2221 32.253 22.9527 33.1641 23.2582C34.8279 23.8193 36.5555 23.0082 37.8582 21.5916C38.6859 20.6916 38.9859 20.1138 39.3026 19.7221C39.8414 19.0555 40.9024 17.5638 42.1662 16.6055C42.6301 16.2527 43.1773 15.9832 43.455 16.161C43.6773 16.3055 43.7467 16.6388 43.3939 17.2832C42.1051 19.636 40.208 22.4027 39.8608 23.0721C39.797 23.1888 39.8525 23.2805 39.9747 23.2805C40.6497 23.2777 41.3163 23.2777 41.9301 23.2777C42.0329 23.2721 42.0774 23.2277 42.1274 23.1555C43.1162 21.6082 44.0467 20.1332 45.0438 18.611C45.0994 18.5221 45.1521 18.5916 45.1521 18.6305C45.1716 18.9832 45.2605 19.4666 45.4688 19.786C45.8465 20.3721 46.3798 20.6249 46.9742 20.6305C47.4464 20.636 47.6853 20.5638 48.1936 20.3749C48.6075 20.2221 48.9408 20.0193 49.1935 19.8388C49.3435 19.736 49.3685 19.9082 49.3657 19.936C49.138 21.1638 49.4185 22.6221 50.6407 23.2249C52.1017 23.9443 53.7071 22.9332 54.632 22.0193C54.7237 21.9305 54.8181 21.9416 54.8293 22.1305C54.8487 22.4805 55.007 22.8943 55.2959 23.1832C56.0708 23.961 57.6318 23.6527 59.2012 22.4388C60.2067 21.661 61.2621 20.5638 62.2121 19.3999C62.2482 19.3555 62.2732 19.2832 62.2065 19.2082C62.0621 19.0555 61.851 18.8832 61.7093 18.7499C61.6427 18.6943 61.5482 18.711 61.4927 18.7527C60.5177 19.6805 59.64 20.7388 58.3707 21.6138C57.9429 21.9138 57.2596 22.1527 56.9541 21.7388C56.8347 21.5777 56.8486 21.3555 56.9652 21.0638C57.3374 20.1416 63.1953 11.2221 63.4981 10.6943Z" fill="#FFFFFF"/>
</svg>
