<svg xmlns="http://www.w3.org/2000/svg" viewBox="32.5 32.5 35 35"><g><path d="M66.005 43.15a17.435 17.435 0 00-3.736-5.543 17.369 17.369 0 00-5.544-3.736 17.318 17.318 0 00-6.787-1.371 17.38 17.38 0 00-12.331 5.107 17.37 17.37 0 00-3.736 5.543 17.32 17.32 0 00-1.371 6.788 17.408 17.408 0 005.107 12.331 17.43 17.43 0 005.543 3.736c2.15.909 4.434 1.37 6.788 1.37a17.34 17.34 0 006.788-1.37 17.457 17.457 0 005.543-3.736 17.369 17.369 0 003.736-5.544 17.332 17.332 0 001.37-6.787c0-2.355-.461-4.638-1.37-6.788zm-1.821 12.805a15.4 15.4 0 01-3.313 4.915 15.361 15.361 0 01-4.915 3.313c-1.905.806-3.93 1.214-6.018 1.214s-4.112-.408-6.018-1.214a15.41 15.41 0 01-4.915-3.313 15.4 15.4 0 01-3.313-4.915c-.806-1.905-1.215-3.93-1.215-6.018s.409-4.112 1.215-6.018a15.427 15.427 0 013.313-4.915 15.419 15.419 0 0110.933-4.528 15.419 15.419 0 0110.933 4.528 15.372 15.372 0 013.313 4.915c.807 1.906 1.214 3.93 1.214 6.018s-.409 4.113-1.214 6.018z"></path><path d="M55.466 40.819H44.408v1.935h-4.226v.989c0 1.726.457 3.423 1.321 4.906a9.818 9.818 0 003.062 3.238 5.547 5.547 0 004.383 4.128v3.099h-1.704v1.978h5.385v-1.978h-1.704v-3.099a5.548 5.548 0 004.383-4.128 9.816 9.816 0 003.081-3.27 9.76 9.76 0 001.303-4.874v-.989h-4.227v-1.935h.001zm-11.058 8.395a7.755 7.755 0 01-2.188-4.483h2.187l.001 4.483zm9.082 1.36a3.556 3.556 0 01-3.553 3.552 3.555 3.555 0 01-3.552-3.552v-7.779h7.104l.001 7.779zm4.164-5.844a7.738 7.738 0 01-2.189 4.483V44.73h2.189z"></path></g></svg>