<svg xmlns="http://www.w3.org/2000/svg" viewBox="282.64 405.945 30 30"><path d="M310.412 405.945h-25.556c-1.224 0-2.216.968-2.216 2.162v25.677c0 1.194.993 2.161 2.216 2.161h25.556c1.225 0 2.218-.967 2.218-2.161v-25.677c0-1.193-.993-2.162-2.218-2.162zm-18.681 25.265h-4.529v-13.629h4.529v13.629zm-2.264-15.49h-.03c-1.521 0-2.503-1.046-2.503-2.354 0-1.337 1.013-2.354 2.563-2.354 1.549 0 2.502 1.018 2.532 2.354 0 1.308-.983 2.354-2.562 2.354zm18.597 15.49h-4.529v-7.291c0-1.834-.654-3.082-2.295-3.082-1.25 0-1.995.843-2.323 1.656-.121.292-.15.698-.15 1.106v7.61h-4.528s.059-12.35 0-13.629h4.528v1.933c.602-.929 1.676-2.253 4.084-2.253 2.979 0 5.214 1.947 5.214 6.133v7.817z"></path></svg>